HIERARCHY
ROOT Hips
{
	OFFSET 0.000000 0.000000 0.000000
	CHANNELS 6 Xposition Yposition Zposition Zrotation Yrotation Xrotation 
	JOINT LHipJoint
	{
		OFFSET 0.000000 0.000000 0.000000
		CHANNELS 3 Zrotation Yrotation Xrotation
		JOINT LeftUpLeg
		{
			OFFSET 1.363060 -1.794630 0.839290
			CHANNELS 3 Zrotation Yrotation Xrotation
			JOINT LeftLeg
			{
				OFFSET 2.448110 -6.726130 0.000000
				CHANNELS 3 Zrotation Yrotation Xrotation
				JOINT LeftFoot
				{
					OFFSET 2.562200 -7.039590 0.000000
					CHANNELS 3 Zrotation Yrotation Xrotation
					JOINT LeftToeBase
					{
						OFFSET 0.157640 -0.433110 2.322550
						CHANNELS 3 Zrotation Yrotation Xrotation
						End Site
						{
							OFFSET 0.000000 0.000000 0.000000
						}
					}
				}
			}
		}
	}
	JOINT RHipJoint
	{
		OFFSET 0.000000 0.000000 0.000000
		CHANNELS 3 Zrotation Yrotation Xrotation
		JOINT RightUpLeg
		{
			OFFSET -1.305520 -1.794630 0.839290
			CHANNELS 3 Zrotation Yrotation Xrotation
			JOINT RightLeg
			{
				OFFSET -2.542530 -6.985550 0.000000
				CHANNELS 3 Zrotation Yrotation Xrotation
				JOINT RightFoot
				{
					OFFSET -2.568260 -7.056230 0.000000
					CHANNELS 3 Zrotation Yrotation Xrotation
					JOINT RightToeBase
					{
						OFFSET -0.164730 -0.452590 2.363150
						CHANNELS 3 Zrotation Yrotation Xrotation
						End Site
						{
							OFFSET 0.000000 0.000000 0.000000
						}
					}
				}
			}
		}
	}
	JOINT LowerBack
	{
		OFFSET 0.000000 0.000000 0.000000
		CHANNELS 3 Zrotation Yrotation Xrotation
		JOINT Spine
		{
			OFFSET 0.028270 2.035590 -0.193380
			CHANNELS 3 Zrotation Yrotation Xrotation
			JOINT Spine1
			{
				OFFSET 0.056720 2.048850 -0.042750
				CHANNELS 3 Zrotation Yrotation Xrotation
				JOINT Neck
				{
					OFFSET 0.000000 0.000000 0.000000
					CHANNELS 3 Zrotation Yrotation Xrotation
					JOINT Neck1
					{
						OFFSET -0.054170 1.746240 0.172020
						CHANNELS 3 Zrotation Yrotation Xrotation
						JOINT Head
						{
							OFFSET 0.104070 1.761360 -0.123970
							CHANNELS 3 Zrotation Yrotation Xrotation
							End Site
							{
								OFFSET 0.000000 0.000000 0.000000
							}
						}
					}
				}
				JOINT LeftShoulder
				{
					OFFSET 0.000000 0.000000 0.000000
					CHANNELS 3 Zrotation Yrotation Xrotation
					JOINT LeftArm
					{
						OFFSET 3.362410 1.200890 -0.311210
						CHANNELS 3 Zrotation Yrotation Xrotation
						JOINT LeftForeArm
						{
							OFFSET 4.983000 -0.000000 -0.000000
							CHANNELS 3 Zrotation Yrotation Xrotation
							JOINT LeftHand
							{
								OFFSET 3.483560 -0.000000 -0.000000
								CHANNELS 3 Zrotation Yrotation Xrotation
								JOINT LeftFingerBase
								{
									OFFSET 0.000000 0.000000 0.000000
									CHANNELS 3 Zrotation Yrotation Xrotation
									JOINT LeftHandIndex1
									{
										OFFSET 0.715260 -0.000000 -0.000000
										CHANNELS 3 Zrotation Yrotation Xrotation
										End Site
										{
											OFFSET 0.000000 0.000000 0.000000
										}
									}
								}
								JOINT LThumb
								{
									OFFSET 0.000000 0.000000 0.000000
									CHANNELS 3 Zrotation Yrotation Xrotation
									End Site
									{
										OFFSET 0.000000 0.000000 0.000000
									}
								}
							}
						}
					}
				}
				JOINT RightShoulder
				{
					OFFSET 0.000000 0.000000 0.000000
					CHANNELS 3 Zrotation Yrotation Xrotation
					JOINT RightArm
					{
						OFFSET -3.136600 1.374050 -0.404650
						CHANNELS 3 Zrotation Yrotation Xrotation
						JOINT RightForeArm
						{
							OFFSET -5.241900 -0.000000 -0.000000
							CHANNELS 3 Zrotation Yrotation Xrotation
							JOINT RightHand
							{
								OFFSET -3.444170 -0.000000 -0.000000
								CHANNELS 3 Zrotation Yrotation Xrotation
								JOINT RightFingerBase
								{
									OFFSET 0.000000 0.000000 0.000000
									CHANNELS 3 Zrotation Yrotation Xrotation
									JOINT RightHandIndex1
									{
										OFFSET -0.622530 -0.000000 -0.000000
										CHANNELS 3 Zrotation Yrotation Xrotation
										End Site
										{
											OFFSET 0.000000 0.000000 0.000000
										}
									}
								}
								JOINT RThumb
								{
									OFFSET 0.000000 0.000000 0.000000
									CHANNELS 3 Zrotation Yrotation Xrotation
									End Site
									{
										OFFSET 0.000000 0.000000 0.000000
									}
								}
							}
						}
					}
				}
			}
		}
	}
}
MOTION
Frames: 7
Frame Time: 0.033333
-0.699811 17.547707 10.239154 0.159721 -11.338466 20.742225 -13.287127 2.361169 -1.082913 -0.973821 -1.363870 -35.006909 -2.377132 0.248052 30.665229 1.372659 4.575558 -5.272616 1.491498 0.213761 -38.317770 12.774875 -7.546142 3.986262 3.123872 9.636744 -13.617680 4.080358 -1.335882 -11.849434 0.177715 3.601625 -1.578196 -0.084894 -0.105761 -60.503766 -6.256503 11.165163 -19.091363 -3.378095 -1.911902 -4.088283 -8.325725 -1.560449 1.771227 8.875906 -2.348976 -8.504106 -2.207856 -0.347479 -0.142679 0.018039 -0.012193 0.005254 3.410730 7.267892 7.531534 -1.499101 -29.188200 -34.903882 2.225897 -54.990668 -2.147607 11.860947 -1.512175 -0.182235 -0.269491 0.205231 0.026314 -0.007517 -0.070992 -0.007589 -0.115452 0.107607 -0.067166 18.937314 1.135999 -16.269661 61.974191 32.310546 12.284367 -3.150712 48.206306 -1.059728 -5.900908 10.472973 -0.572362 0.123928 -0.500002 -0.083146 -0.070022 0.000262 -0.016498 0.044298 0.078325 -0.019012 
-0.738640 17.529561 10.855494 1.026438 -12.239686 18.885688 -14.638416 3.493301 -2.214664 -0.872685 -1.878320 -20.427560 -2.140897 -7.447103 16.833501 0.633046 2.858548 -2.376524 1.536674 0.234509 -40.832405 11.734489 -7.910291 5.527774 3.387541 8.364949 -12.621933 3.464446 -3.155018 -10.459015 1.670451 6.728951 -2.948387 -0.112708 -0.094351 -62.159566 -6.704836 10.094612 -19.611593 -4.181739 -1.510856 -4.163257 -6.834555 0.088624 2.709983 8.454992 -1.791470 -8.410774 -2.214938 -0.362402 0.037245 0.034121 -0.014220 0.009193 2.997135 9.264424 8.002042 12.187126 -21.815069 -51.513992 0.419479 -54.710674 -1.889365 11.385944 -1.488589 -0.177294 -0.210331 0.094591 0.035231 -0.007429 -0.061813 -0.010516 -0.111484 0.093257 -0.076531 17.522653 -4.027336 -16.102171 59.980207 35.670340 10.491286 -2.831169 51.076517 -0.353906 -5.316414 11.085568 -0.567899 0.063527 -0.547670 -0.087585 -0.085247 -0.000852 -0.009435 0.034493 0.094603 -0.017841 
-0.769510 17.491114 11.496982 1.523088 -11.362079 17.535625 -15.555074 3.485903 -2.607535 0.327065 0.587257 -10.528204 -2.794666 -12.231313 7.395557 0.004069 1.410888 -1.258089 1.460887 0.176936 -43.292914 11.921753 -7.773512 5.817379 2.752222 6.183893 -13.072122 2.930779 -5.150310 -4.393728 2.650628 9.016765 -7.514462 0.037327 -0.046618 -63.338969 -7.252689 7.235698 -19.572795 -4.100018 -0.836690 -3.322162 -6.266069 0.753246 2.847142 8.900472 -2.540740 -9.673130 -1.887945 -0.337899 -0.122685 0.038943 -0.020838 0.017466 4.197495 12.126189 9.005381 19.628153 -16.016963 -64.935382 -2.796325 -54.104677 -0.141400 9.687727 -0.956121 -0.105614 -0.232800 0.105765 0.040485 -0.013062 -0.054183 -0.002216 -0.106759 0.082079 -0.085475 16.188496 -9.288973 -14.723612 58.188395 37.716611 10.285599 -3.360808 57.814108 -1.071898 -4.900357 11.338622 -0.553345 0.001315 -0.625983 -0.083323 -0.084629 -0.003393 -0.010463 0.031404 0.091368 -0.015692 
-0.812868 17.443522 12.164968 1.373764 -11.452321 16.117629 -16.301109 4.558986 -3.300379 1.448469 0.623606 -2.421287 -0.957485 -12.013268 0.148238 -0.425332 1.025301 0.523670 1.365532 0.153962 -44.846631 12.105701 -6.746277 6.900985 1.877155 4.876306 -16.862897 1.914255 -8.327226 7.696625 3.477406 11.377593 -13.320666 0.262980 -0.016169 -64.518603 -5.452565 2.575757 -18.558747 -4.782096 0.492810 -3.846707 -5.141352 1.612337 4.724258 8.966848 -3.150370 -10.876374 -1.880496 -0.323060 -0.420958 0.042727 -0.026771 0.029874 3.938091 15.358514 9.997310 24.776558 -12.828301 -75.227212 -4.991228 -52.268650 1.069783 8.276456 -0.441448 -0.059728 -0.212040 0.049588 0.046433 -0.011581 -0.044847 0.013994 -0.094843 0.069862 -0.095949 14.013969 -15.244671 -9.735805 55.300993 40.387453 8.230395 -4.872685 64.820760 -2.173979 -4.756379 11.350850 -0.539676 -0.024444 -0.651392 -0.075581 -0.084105 -0.010490 -0.016082 0.028236 0.089078 -0.016330 
-0.872969 17.391116 12.860047 -0.140816 -9.357166 15.064082 -15.813432 4.708996 -4.407697 1.186150 1.019678 1.302380 2.289845 -9.766052 2.286393 -0.588871 0.508839 -0.123423 1.260813 0.111157 -46.291422 11.717856 -5.408457 7.052768 1.119978 4.019096 -21.402982 4.223092 -10.014621 19.229569 3.380268 10.642484 -11.328715 0.560298 0.006411 -65.128698 -2.329453 -0.513950 -16.871843 -4.091725 1.032937 -3.980921 -5.754982 2.137519 5.124019 10.032737 -4.134509 -11.710623 -1.570244 -0.291703 -0.622266 0.039084 -0.038053 0.045080 5.177564 16.767399 10.564993 24.311173 -14.157767 -80.275767 -6.939116 -51.046569 2.338434 6.770576 0.249861 0.004660 -0.180116 0.080905 0.053252 -0.010253 -0.043483 0.020666 -0.085340 0.060395 -0.100888 15.195122 -23.038628 -2.338934 52.335709 41.633653 7.151192 -6.929922 71.402678 -4.096587 -4.875139 11.131464 -0.546934 -0.050504 -0.694511 -0.063821 -0.074074 -0.011746 -0.023902 0.028319 0.074733 -0.019548 
-0.939604 17.326333 13.587145 -1.194495 -4.670256 12.870478 -15.076638 4.359542 -6.490078 1.884071 2.304177 2.958681 2.613482 -3.589683 8.517797 -0.091375 2.655600 0.289444 1.054780 0.112653 -46.657465 9.782643 -3.269701 9.320968 -2.449455 7.456461 -28.382244 11.891885 -6.773264 33.676031 1.724028 11.208883 9.920756 0.847869 0.035829 -65.887403 2.105421 -8.551484 -15.272754 -3.931275 1.463776 -2.770711 -5.580736 2.300344 4.667619 10.736766 -5.101061 -12.136080 -1.492956 -0.256562 -0.881414 0.038832 -0.049165 0.064442 5.681682 19.103212 12.419929 24.879510 -16.332136 -85.640822 -8.508940 -49.890394 4.629295 5.337919 1.043488 0.033580 -0.199981 0.144875 0.060100 -0.001373 -0.034291 0.028407 -0.077736 0.053488 -0.107144 13.260676 -27.359227 8.943722 49.763259 41.848794 4.981704 -14.114785 76.757653 -10.444425 -5.152825 10.806517 -0.568006 -0.047976 -0.705903 -0.049804 -0.061280 -0.018941 -0.039930 0.028319 0.064162 -0.025592 
-1.008389 17.237897 14.350724 -2.028643 4.263554 13.059580 -13.954040 3.880495 -10.172063 0.713912 5.716176 3.655442 1.227443 0.450780 7.225944 0.409714 4.543796 -3.104413 0.833357 0.083026 -47.367056 4.771264 5.254162 16.713738 -13.306617 16.297355 -34.785995 39.532755 20.121521 34.492005 8.394257 33.140461 40.905754 0.936781 0.025170 -65.949782 5.954611 -15.482568 -13.437207 -2.918591 0.031588 -3.736655 -5.619079 1.067890 5.538858 11.018536 -6.173742 -11.926223 -1.474267 -0.247890 -0.743965 0.034810 -0.056989 0.082156 6.184502 17.846950 12.407868 21.976909 -20.682116 -87.183146 -8.045582 -47.673879 3.787164 4.726541 1.569451 0.061683 -0.125309 0.194380 0.061128 0.001763 -0.038372 0.026295 -0.072743 0.044319 -0.108953 12.363387 -29.481288 11.823954 48.130710 40.047777 2.395348 -15.266169 79.470261 -11.721657 -5.060686 10.587427 -0.562424 -0.043329 -0.683281 -0.042512 -0.048157 -0.024874 -0.055295 0.023219 0.053151 -0.026264 
